<svg version="1.1" viewBox="0.0 0.0 960.0 960.0" fill="none" stroke="none" stroke-linecap="square" stroke-miterlimit="10" xmlns:xlink="http://www.w3.org/1999/xlink" xmlns="http://www.w3.org/2000/svg"><clipPath id="p.0"><path d="m0 0l960.0 0l0 960.0l-960.0 0l0 -960.0z" clip-rule="nonzero"/></clipPath><g clip-path="url(#p.0)"><path fill="#000000" fill-opacity="0.0" d="m0 0l960.0 0l0 960.0l-960.0 0z" fill-rule="evenodd"/><path fill="#fc285d" d="m386.6637 53.814186c61.83902 0 111.48334 18.80352 148.93292 56.410507c37.606934 37.44967 56.4104 86.149925 56.4104 146.10083c0 61.367096 -23.287964 111.87692 -69.86395 151.52948c-46.41858 39.652588 -115.417114 59.47885 -206.99551 59.47885c-4.248474 0 -9.6770935 -0.0786438 -16.285858 -0.23602295c-6.608734 -0.31466675 -14.397614 -0.4720459 -23.366638 -0.4720459l0 -399.35806c46.733307 -8.969036 83.78952 -13.453552 111.16864 -13.453552zm-384.48773 -53.814205l0 26.199022l36.112106 0c36.34813 0 63.72724 10.385197 82.13734 31.155594c13.217506 14.633686 19.826256 52.162014 19.826256 112.58498l0 620.27954c0 54.7583 -4.956558 89.454285 -14.86969 104.08801c-17.465988 26.434998 -46.49729 39.652527 -87.0939 39.652527l-36.112106 0l0 26.199036l411.39478 0l0 -26.199036l-37.52826 0c-35.87607 0 -62.783142 -10.385193 -80.72116 -31.155579c-13.217529 -14.633667 -19.826263 -52.161987 -19.826263 -112.58496l0 -278.9842c7.5528564 0.47207642 14.86969 0.8654785 21.9505 1.1801147c7.0808105 0.15740967 13.689545 0.23608398 19.826233 0.23608398c15.105743 0 34.695953 -0.47210693 58.77069 -1.4161987l325.00897 448.92377l256.32513 0l0 -26.199036c-52.39795 -5.664612 -94.88281 -18.882141 -127.45453 -39.652527c-32.571655 -20.770447 -71.51611 -62.783264 -116.83325 -126.038574l-198.26257 -275.44376c80.72119 -17.93805 140.27863 -48.621582 178.67236 -92.0506c38.551025 -43.429016 57.826538 -94.64691 57.826538 -153.65372c0 -55.230377 -16.915222 -102.7505 -50.745728 -142.56046c-33.673218 -39.967255 -74.74188 -67.34641 -123.206055 -82.13747c-48.306824 -14.9484005 -123.44202 -22.422586 -225.40561 -22.422586z" fill-rule="evenodd"/><path fill="#000000" d="m236.67656 84.32943l43.509018 155.60654l-87.52994 0l44.02092 -155.60654zm-41.461563 -61.42363l-99.047035 334.50287l62.448265 0l18.939224 -66.030426l116.706604 0l18.427338 66.030426l69.61447 0l-99.04706 -334.50287z" fill-rule="evenodd"/><path stroke="#ffffff" stroke-width="8.0" stroke-linejoin="round" stroke-linecap="butt" d="m236.67656 84.32943l43.509018 155.60654l-87.52994 0l44.02092 -155.60654zm-41.461563 -61.42363l-99.047035 334.50287l62.448265 0l18.939224 -66.030426l116.706604 0l18.427338 66.030426l69.61447 0l-99.04706 -334.50287z" fill-rule="evenodd"/><path fill="#000000" d="m586.1378 22.905508l90.089355 163.02856l-96.48773 171.47429l76.01288 0l63.471985 -123.10318l64.49573 123.10318l80.10785 0l-100.0708 -171.47429l89.57745 -163.02856l-73.96539 0l-58.60919 116.44897l-60.65674 -116.44897z" fill-rule="evenodd"/><path stroke="#ffffff" stroke-width="8.0" stroke-linejoin="round" stroke-linecap="butt" d="m586.1378 22.905508l90.089355 163.02856l-96.48773 171.47429l76.01288 0l63.471985 -123.10318l64.49573 123.10318l80.10785 0l-100.0708 -171.47429l89.57745 -163.02856l-73.96539 0l-58.60919 116.44897l-60.65674 -116.44897z" fill-rule="evenodd"/><path fill="#000000" d="m133.64304 596.9218l0 51.44226l73.70943 0l0 231.10645l-73.70943 0l0 51.954163l211.40274 0l0 -51.954163l-73.70944 0l0 -231.10645l73.70944 0l0 -51.44226z" fill-rule="evenodd"/><path stroke="#ffffff" stroke-width="8.0" stroke-linejoin="round" stroke-linecap="butt" d="m133.64304 596.9218l0 51.44226l73.70943 0l0 231.10645l-73.70943 0l0 51.954163l211.40274 0l0 -51.954163l-73.70944 0l0 -231.10645l73.70944 0l0 -51.44226z" fill-rule="evenodd"/><path fill="#000000" d="m734.3783 591.1567c-22.692932 0 -42.058716 2.61615 -58.09735 7.848572c-16.038635 5.175537 -29.176697 12.170959 -39.414062 20.98639c-10.237427 8.758545 -17.744873 19.024292 -22.522339 30.79712c-4.777466 11.772888 -7.1661987 24.22821 -7.1661987 37.36609c0 14.332153 2.3318481 26.58844 6.9955444 36.76886c4.720642 10.123535 10.919922 18.853638 18.598022 26.190308c7.6780396 7.336731 16.408264 13.479126 26.190735 18.427124c9.839294 4.947998 19.82074 9.384155 29.944458 13.308472c10.180542 3.9242554 20.161987 7.5925903 29.944458 11.005066c9.839294 3.4124146 18.597961 7.251404 26.276001 11.516907c7.6781006 4.265503 13.848999 9.18512 18.512695 14.758728c4.720581 5.5167236 7.0808716 12.370056 7.0808716 20.559875c0 5.9717407 -1.194397 11.43158 -3.5830688 16.379639c-2.388733 4.947998 -6.227783 9.213501 -11.517151 12.79657c-5.2893066 3.5830688 -12.114258 6.3983154 -20.474792 8.44574c-8.360596 2.0474854 -18.512695 3.071167 -30.45636 3.071167c-8.019287 0 -16.294556 -0.5118408 -24.825745 -1.5355835c-8.531189 -1.0237427 -17.119263 -2.4171143 -25.76416 -4.180176c-8.588074 -1.8200073 -17.147705 -3.9243164 -25.678894 -6.3129883c-8.531128 -2.388733 -16.72107 -4.948059 -24.569763 -7.6779785l0 62.191406c16.038635 4.777405 32.247864 8.189819 48.627747 10.237305c16.379883 2.0474243 33.356934 3.071167 50.931152 3.071167c19.792358 0 38.049072 -2.1327515 54.770203 -6.3983154c16.72113 -4.265503 31.138794 -10.777588 43.253113 -19.536133c12.114258 -8.81543 21.526978 -19.962646 28.23822 -33.44171c6.7680664 -13.479065 10.1521 -29.346863 10.1521 -47.603333c0 -13.649719 -2.3602905 -25.450989 -7.0808716 -35.40387c-4.6637573 -10.009827 -10.8914795 -18.683044 -18.683289 -26.019775c-7.7349854 -7.33667 -16.522095 -13.564392 -26.36139 -18.682983c-9.78241 -5.1186523 -19.849243 -9.668518 -30.200378 -13.649719c-10.294312 -4.038025 -20.361084 -7.791687 -30.200378 -11.260986c-9.782471 -3.526184 -18.56958 -7.279846 -26.36139 -11.260986c-7.7349243 -4.038025 -13.9627075 -8.559509 -18.683289 -13.564392c-4.6636963 -5.0617676 -6.9955444 -11.090393 -6.9955444 -18.085876c0 -5.630493 1.1090088 -10.7491455 3.3271484 -15.355896c2.2180786 -4.6067505 5.8012085 -8.474182 10.749268 -11.602234c4.94812 -3.1849365 11.261169 -5.6589355 18.93927 -7.421997c7.6780396 -1.8200073 17.062317 -2.7299805 28.152893 -2.7299805c6.3130493 0 12.967407 0.34124756 19.962952 1.0237427c6.9956055 0.6824951 13.934265 1.6777954 20.816101 2.9858398c6.9386597 1.2512817 13.649902 2.7299805 20.133606 4.436157c6.4837036 1.7062378 12.455505 3.5830688 17.915466 5.630493l0 -57.584595c-5.459961 -1.3649902 -11.488647 -2.6730957 -18.08612 -3.9243164c-6.5405884 -1.3081055 -13.36554 -2.4171143 -20.474854 -3.3270874c-7.052429 -0.9668579 -14.218628 -1.7346802 -21.498535 -2.3034058c-7.2230835 -0.62561035 -14.161804 -0.9384155 -20.816101 -0.9384155z" fill-rule="evenodd"/><path stroke="#ffffff" stroke-width="8.0" stroke-linejoin="round" stroke-linecap="butt" d="m734.3783 591.1567c-22.692932 0 -42.058716 2.61615 -58.09735 7.848572c-16.038635 5.175537 -29.176697 12.170959 -39.414062 20.98639c-10.237427 8.758545 -17.744873 19.024292 -22.522339 30.79712c-4.777466 11.772888 -7.1661987 24.22821 -7.1661987 37.36609c0 14.332153 2.3318481 26.58844 6.9955444 36.76886c4.720642 10.123535 10.919922 18.853638 18.598022 26.190308c7.6780396 7.336731 16.408264 13.479126 26.190735 18.427124c9.839294 4.947998 19.82074 9.384155 29.944458 13.308472c10.180542 3.9242554 20.161987 7.5925903 29.944458 11.005066c9.839294 3.4124146 18.597961 7.251404 26.276001 11.516907c7.6781006 4.265503 13.848999 9.18512 18.512695 14.758728c4.720581 5.5167236 7.0808716 12.370056 7.0808716 20.559875c0 5.9717407 -1.194397 11.43158 -3.5830688 16.379639c-2.388733 4.947998 -6.227783 9.213501 -11.517151 12.79657c-5.2893066 3.5830688 -12.114258 6.3983154 -20.474792 8.44574c-8.360596 2.0474854 -18.512695 3.071167 -30.45636 3.071167c-8.019287 0 -16.294556 -0.5118408 -24.825745 -1.5355835c-8.531189 -1.0237427 -17.119263 -2.4171143 -25.76416 -4.180176c-8.588074 -1.8200073 -17.147705 -3.9243164 -25.678894 -6.3129883c-8.531128 -2.388733 -16.72107 -4.948059 -24.569763 -7.6779785l0 62.191406c16.038635 4.777405 32.247864 8.189819 48.627747 10.237305c16.379883 2.0474243 33.356934 3.071167 50.931152 3.071167c19.792358 0 38.049072 -2.1327515 54.770203 -6.3983154c16.72113 -4.265503 31.138794 -10.777588 43.253113 -19.536133c12.114258 -8.81543 21.526978 -19.962646 28.23822 -33.44171c6.7680664 -13.479065 10.1521 -29.346863 10.1521 -47.603333c0 -13.649719 -2.3602905 -25.450989 -7.0808716 -35.40387c-4.6637573 -10.009827 -10.8914795 -18.683044 -18.683289 -26.019775c-7.7349854 -7.33667 -16.522095 -13.564392 -26.36139 -18.682983c-9.78241 -5.1186523 -19.849243 -9.668518 -30.200378 -13.649719c-10.294312 -4.038025 -20.361084 -7.791687 -30.200378 -11.260986c-9.782471 -3.526184 -18.56958 -7.279846 -26.36139 -11.260986c-7.7349243 -4.038025 -13.9627075 -8.559509 -18.683289 -13.564392c-4.6636963 -5.0617676 -6.9955444 -11.090393 -6.9955444 -18.085876c0 -5.630493 1.1090088 -10.7491455 3.3271484 -15.355896c2.2180786 -4.6067505 5.8012085 -8.474182 10.749268 -11.602234c4.94812 -3.1849365 11.261169 -5.6589355 18.93927 -7.421997c7.6780396 -1.8200073 17.062317 -2.7299805 28.152893 -2.7299805c6.3130493 0 12.967407 0.34124756 19.962952 1.0237427c6.9956055 0.6824951 13.934265 1.6777954 20.816101 2.9858398c6.9386597 1.2512817 13.649902 2.7299805 20.133606 4.436157c6.4837036 1.7062378 12.455505 3.5830688 17.915466 5.630493l0 -57.584595c-5.459961 -1.3649902 -11.488647 -2.6730957 -18.08612 -3.9243164c-6.5405884 -1.3081055 -13.36554 -2.4171143 -20.474854 -3.3270874c-7.052429 -0.9668579 -14.218628 -1.7346802 -21.498535 -2.3034058c-7.2230835 -0.62561035 -14.161804 -0.9384155 -20.816101 -0.9384155z" fill-rule="evenodd"/></g></svg>